<svg xmlns="http://www.w3.org/2000/svg" viewBox="0 0 800 600" width="800" height="600"><rect width="800" height="600" fill="#FBF8F2"/><circle cx="400" cy="300" r="70" fill="none" stroke="rgba(43,42,36,.10)" stroke-width="1"/><circle cx="400" cy="300" r="130" fill="none" stroke="rgba(43,42,36,.10)" stroke-width="1"/><circle cx="400" cy="300" r="190" fill="none" stroke="rgba(43,42,36,.10)" stroke-width="1"/><circle cx="400" cy="300" r="250" fill="none" stroke="rgba(43,42,36,.10)" stroke-width="1"/><line x1="400" y1="300" x2="400.0" y2="50.0" stroke="rgba(43,42,36,.05)" stroke-width="1"/><line x1="400" y1="300" x2="525.0" y2="83.5" stroke="rgba(43,42,36,.05)" stroke-width="1"/><line x1="400" y1="300" x2="616.5" y2="175.0" stroke="rgba(43,42,36,.05)" stroke-width="1"/><line x1="400" y1="300" x2="650.0" y2="300.0" stroke="rgba(43,42,36,.05)" stroke-width="1"/><line x1="400" y1="300" x2="616.5" y2="425.0" stroke="rgba(43,42,36,.05)" stroke-width="1"/><line x1="400" y1="300" x2="525.0" y2="516.5" stroke="rgba(43,42,36,.05)" stroke-width="1"/><line x1="400" y1="300" x2="400.0" y2="550.0" stroke="rgba(43,42,36,.05)" stroke-width="1"/><line x1="400" y1="300" x2="275.0" y2="516.5" stroke="rgba(43,42,36,.05)" stroke-width="1"/><line x1="400" y1="300" x2="183.5" y2="425.0" stroke="rgba(43,42,36,.05)" stroke-width="1"/><line x1="400" y1="300" x2="150.0" y2="300.0" stroke="rgba(43,42,36,.05)" stroke-width="1"/><line x1="400" y1="300" x2="183.5" y2="175.0" stroke="rgba(43,42,36,.05)" stroke-width="1"/><line x1="400" y1="300" x2="275.0" y2="83.5" stroke="rgba(43,42,36,.05)" stroke-width="1"/><circle cx="400" cy="300" r="200" fill="none" stroke="#7d6244" stroke-width="14" stroke-opacity=".55"/><circle cx="400" cy="300" r="200" fill="none" stroke="#5e4a33" stroke-width="6" stroke-opacity=".5" stroke-dasharray="3 9"/><ellipse cx="372.2" cy="498.1" rx="13" ry="5" transform="rotate(98 372.2 498.1)" fill="#6f8456" fill-opacity=".8"/><ellipse cx="328.3" cy="486.7" rx="13" ry="5" transform="rotate(111 328.3 486.7)" fill="#6f8456" fill-opacity=".8"/><ellipse cx="288.2" cy="465.8" rx="13" ry="5" transform="rotate(124 288.2 465.8)" fill="#6f8456" fill-opacity=".8"/><ellipse cx="253.7" cy="436.4" rx="13" ry="5" transform="rotate(137 253.7 436.4)" fill="#6f8456" fill-opacity=".8"/><ellipse cx="226.8" cy="400.0" rx="13" ry="5" transform="rotate(150 226.8 400.0)" fill="#6f8456" fill-opacity=".8"/><ellipse cx="208.7" cy="358.5" rx="13" ry="5" transform="rotate(163 208.7 358.5)" fill="#6f8456" fill-opacity=".8"/><ellipse cx="200.5" cy="314.0" rx="13" ry="5" transform="rotate(176 200.5 314.0)" fill="#6f8456" fill-opacity=".8"/><ellipse cx="202.5" cy="268.7" rx="13" ry="5" transform="rotate(189 202.5 268.7)" fill="#6f8456" fill-opacity=".8"/><ellipse cx="214.6" cy="225.1" rx="13" ry="5" transform="rotate(202 214.6 225.1)" fill="#6f8456" fill-opacity=".8"/><ellipse cx="236.2" cy="185.3" rx="13" ry="5" transform="rotate(215 236.2 185.3)" fill="#6f8456" fill-opacity=".8"/><ellipse cx="266.2" cy="151.4" rx="13" ry="5" transform="rotate(228 266.2 151.4)" fill="#6f8456" fill-opacity=".8"/><ellipse cx="303.0" cy="125.1" rx="13" ry="5" transform="rotate(241 303.0 125.1)" fill="#6f8456" fill-opacity=".8"/><ellipse cx="344.9" cy="107.7" rx="13" ry="5" transform="rotate(254 344.9 107.7)" fill="#6f8456" fill-opacity=".8"/><ellipse cx="389.5" cy="100.3" rx="13" ry="5" transform="rotate(267 389.5 100.3)" fill="#6f8456" fill-opacity=".8"/><ellipse cx="434.7" cy="103.0" rx="13" ry="5" transform="rotate(280 434.7 103.0)" fill="#6f8456" fill-opacity=".8"/><ellipse cx="478.1" cy="115.9" rx="13" ry="5" transform="rotate(293 478.1 115.9)" fill="#6f8456" fill-opacity=".8"/><ellipse cx="517.6" cy="138.2" rx="13" ry="5" transform="rotate(306 517.6 138.2)" fill="#6f8456" fill-opacity=".8"/><ellipse cx="550.9" cy="168.8" rx="13" ry="5" transform="rotate(319 550.9 168.8)" fill="#6f8456" fill-opacity=".8"/><ellipse cx="576.6" cy="206.1" rx="13" ry="5" transform="rotate(332 576.6 206.1)" fill="#6f8456" fill-opacity=".8"/><circle cx="236.2" cy="185.3" r="18" fill="#9fb8d6" stroke="rgba(120,100,60,.25)" stroke-width="1"/><circle cx="236.2" cy="185.3" r="5.4" fill="rgba(120,138,118,.35)"/><circle cx="303.8" cy="119.0" r="12" fill="#f3ede0" stroke="rgba(120,100,60,.25)" stroke-width="1"/><circle cx="303.8" cy="119.0" r="3.6" fill="rgba(120,138,118,.35)"/><circle cx="196.1" cy="278.6" r="11" fill="#efe8db" stroke="rgba(120,100,60,.25)" stroke-width="1"/><circle cx="196.1" cy="278.6" r="3.3" fill="rgba(120,138,118,.35)"/><circle cx="220.2" cy="387.7" r="12" fill="#f3ede0" stroke="rgba(120,100,60,.25)" stroke-width="1"/><circle cx="220.2" cy="387.7" r="3.6" fill="rgba(120,138,118,.35)"/><circle cx="381.7" cy="90.8" r="8" fill="#efe8db" stroke="rgba(120,100,60,.25)" stroke-width="1"/><circle cx="381.7" cy="90.8" r="2.4" fill="rgba(120,138,118,.35)"/><circle cx="256.1" cy="140.2" r="9" fill="#faf8f2" stroke="rgba(120,100,60,.25)" stroke-width="1"/><circle cx="256.1" cy="140.2" r="2.7" fill="rgba(120,138,118,.35)"/><circle cx="262.8" cy="452.3" r="8" fill="#faf8f2" stroke="rgba(120,100,60,.25)" stroke-width="1"/><circle cx="262.8" cy="452.3" r="2.4" fill="rgba(120,138,118,.35)"/><circle cx="463.3" cy="105.0" r="8" fill="#faf8f2" stroke="rgba(120,100,60,.25)" stroke-width="1"/><circle cx="463.3" cy="105.0" r="2.4" fill="rgba(120,138,118,.35)"/><text x="400" y="574" text-anchor="middle" font-family="Georgia,serif" font-size="22" fill="#46663E" letter-spacing="1">Proof composite · exact SKUs</text></svg>