<svg xmlns="http://www.w3.org/2000/svg" width="1120" height="778" viewBox="0 0 1120 778">
  <style>@import url("https://fonts.googleapis.com/css2?family=Cormorant+Garamond:ital,wght@0,500;1,400&amp;family=Dancing+Script:wght@600&amp;family=Inter:wght@300;400;500&amp;display=swap");
    .serif{font-family:'Cormorant Garamond',Georgia,serif}
    .script{font-family:'Dancing Script',cursive;fill:#4a6741}
    .sans{font-family:'Inter',system-ui,sans-serif}
    .muted{fill:#6f6c64}.ink{fill:#2b2b28}.sage{fill:#3a5233}</style>
  <rect width="1120" height="778" fill="#f9f7f4"/>
  <text x="560" y="50" class="serif sage" font-size="28" letter-spacing="5" text-anchor="middle">MOODOOR</text>
  <text x="60" y="120" class="script" font-size="24">For the memory you shared</text>
  <text x="58" y="160" class="serif ink" font-size="34">The wreaths that hold it</text>
  <text x="60" y="192" class="serif muted" font-size="17" font-style="italic">&#8220;the morning of our wedding, before anyone else was awake&#8221;</text>
  <g>
        <rect x="30" y="250" width="250" height="438" rx="4" fill="#ffffff" stroke="#e4e0d8"/>
        <defs><linearGradient id="bpg0" x1="0" y1="0" x2="0" y2="1"><stop offset="0" stop-color="#fbfaf7"/><stop offset="1" stop-color="#f3f1ea"/></linearGradient></defs>
        <rect x="30.5" y="250.5" width="249" height="250" fill="url(#bpg0)"/>
        <svg x="30" y="250" width="250" height="250" viewBox="0 0 320 320">
    <circle cx="160" cy="160" r="108.80000000000001" fill="none" stroke="#d8d3c8" stroke-width="1" stroke-dasharray="2 4"/>
    <circle cx="160" cy="160" r="132.8" fill="none" stroke="#e6e2d9" stroke-width="1"/>
    <circle cx="160" cy="160" r="90.80000000000001" fill="none" stroke="#e6e2d9" stroke-width="1"/>
    <polyline points="160.0,53.2 170.0,53.7 179.9,55.1 189.6,57.4 199.0,60.6 208.1,64.7 216.8,69.6 225.0,75.3 232.6,81.7 247.1,82.2 254.0,90.6 260.0,99.7 265.2,109.3 269.5,119.4 272.8,129.8 271.2,141.1 272.5,151.6 272.8,162.1 284.0,174.0 282.2,185.5 279.3,196.8 275.3,207.8 270.3,218.3 267.8,230.6 260.7,240.3 252.8,249.4 246.6,260.7 236.8,268.3 226.4,275.0" fill="none" stroke="#b9b2a4" stroke-width="0.75"/>
    <circle cx="160.0" cy="53.2" r="11" fill="#e8e0d0" opacity="0.92"/><circle cx="160.0" cy="53.2" r="11" fill="none" stroke="#3a5233" stroke-width="0.5" opacity="0.5"/><circle cx="170.0" cy="53.7" r="11" fill="#e8e0d0" opacity="0.92"/><circle cx="170.0" cy="53.7" r="11" fill="none" stroke="#3a5233" stroke-width="0.5" opacity="0.5"/><circle cx="179.9" cy="55.1" r="11" fill="#e8e0d0" opacity="0.92"/><circle cx="179.9" cy="55.1" r="11" fill="none" stroke="#3a5233" stroke-width="0.5" opacity="0.5"/><circle cx="189.6" cy="57.4" r="11" fill="#e8e0d0" opacity="0.92"/><circle cx="189.6" cy="57.4" r="11" fill="none" stroke="#3a5233" stroke-width="0.5" opacity="0.5"/><circle cx="199.0" cy="60.6" r="11" fill="#e8e0d0" opacity="0.92"/><circle cx="199.0" cy="60.6" r="11" fill="none" stroke="#3a5233" stroke-width="0.5" opacity="0.5"/><circle cx="208.1" cy="64.7" r="11" fill="#e8e0d0" opacity="0.92"/><circle cx="208.1" cy="64.7" r="11" fill="none" stroke="#3a5233" stroke-width="0.5" opacity="0.5"/><circle cx="216.8" cy="69.6" r="11" fill="#e8e0d0" opacity="0.92"/><circle cx="216.8" cy="69.6" r="11" fill="none" stroke="#3a5233" stroke-width="0.5" opacity="0.5"/><circle cx="225.0" cy="75.3" r="11" fill="#e8e0d0" opacity="0.92"/><circle cx="225.0" cy="75.3" r="11" fill="none" stroke="#3a5233" stroke-width="0.5" opacity="0.5"/><circle cx="232.6" cy="81.7" r="11" fill="#e8e0d0" opacity="0.92"/><circle cx="232.6" cy="81.7" r="11" fill="none" stroke="#3a5233" stroke-width="0.5" opacity="0.5"/><circle cx="247.1" cy="82.2" r="7" fill="#e8d8c8" opacity="0.92"/><circle cx="247.1" cy="82.2" r="7" fill="none" stroke="#3a5233" stroke-width="0.5" opacity="0.5"/><circle cx="254.0" cy="90.6" r="7" fill="#e8d8c8" opacity="0.92"/><circle cx="254.0" cy="90.6" r="7" fill="none" stroke="#3a5233" stroke-width="0.5" opacity="0.5"/><circle cx="260.0" cy="99.7" r="7" fill="#e8d8c8" opacity="0.92"/><circle cx="260.0" cy="99.7" r="7" fill="none" stroke="#3a5233" stroke-width="0.5" opacity="0.5"/><circle cx="265.2" cy="109.3" r="7" fill="#e8d8c8" opacity="0.92"/><circle cx="265.2" cy="109.3" r="7" fill="none" stroke="#3a5233" stroke-width="0.5" opacity="0.5"/><circle cx="269.5" cy="119.4" r="7" fill="#e8d8c8" opacity="0.92"/><circle cx="269.5" cy="119.4" r="7" fill="none" stroke="#3a5233" stroke-width="0.5" opacity="0.5"/><circle cx="272.8" cy="129.8" r="7" fill="#e8d8c8" opacity="0.92"/><circle cx="272.8" cy="129.8" r="7" fill="none" stroke="#3a5233" stroke-width="0.5" opacity="0.5"/><circle cx="271.2" cy="141.1" r="6" fill="#8c4a2a" opacity="0.92"/><circle cx="271.2" cy="141.1" r="6" fill="none" stroke="#3a5233" stroke-width="0.5" opacity="0.5"/><circle cx="272.5" cy="151.6" r="6" fill="#8c4a2a" opacity="0.92"/><circle cx="272.5" cy="151.6" r="6" fill="none" stroke="#3a5233" stroke-width="0.5" opacity="0.5"/><circle cx="272.8" cy="162.1" r="6" fill="#8c4a2a" opacity="0.92"/><circle cx="272.8" cy="162.1" r="6" fill="none" stroke="#3a5233" stroke-width="0.5" opacity="0.5"/><circle cx="284.0" cy="174.0" r="5" fill="#7a9070" opacity="0.92"/><circle cx="284.0" cy="174.0" r="5" fill="none" stroke="#3a5233" stroke-width="0.5" opacity="0.5"/><circle cx="282.2" cy="185.5" r="5" fill="#7a9070" opacity="0.92"/><circle cx="282.2" cy="185.5" r="5" fill="none" stroke="#3a5233" stroke-width="0.5" opacity="0.5"/><circle cx="279.3" cy="196.8" r="5" fill="#7a9070" opacity="0.92"/><circle cx="279.3" cy="196.8" r="5" fill="none" stroke="#3a5233" stroke-width="0.5" opacity="0.5"/><circle cx="275.3" cy="207.8" r="5" fill="#7a9070" opacity="0.92"/><circle cx="275.3" cy="207.8" r="5" fill="none" stroke="#3a5233" stroke-width="0.5" opacity="0.5"/><circle cx="270.3" cy="218.3" r="5" fill="#7a9070" opacity="0.92"/><circle cx="270.3" cy="218.3" r="5" fill="none" stroke="#3a5233" stroke-width="0.5" opacity="0.5"/><circle cx="267.8" cy="230.6" r="4" fill="#9a8ab0" opacity="0.92"/><circle cx="267.8" cy="230.6" r="4" fill="none" stroke="#3a5233" stroke-width="0.5" opacity="0.5"/><circle cx="260.7" cy="240.3" r="4" fill="#9a8ab0" opacity="0.92"/><circle cx="260.7" cy="240.3" r="4" fill="none" stroke="#3a5233" stroke-width="0.5" opacity="0.5"/><circle cx="252.8" cy="249.4" r="4" fill="#9a8ab0" opacity="0.92"/><circle cx="252.8" cy="249.4" r="4" fill="none" stroke="#3a5233" stroke-width="0.5" opacity="0.5"/><circle cx="246.6" cy="260.7" r="4" fill="#d4c090" opacity="0.92"/><circle cx="246.6" cy="260.7" r="4" fill="none" stroke="#3a5233" stroke-width="0.5" opacity="0.5"/><circle cx="236.8" cy="268.3" r="4" fill="#d4c090" opacity="0.92"/><circle cx="236.8" cy="268.3" r="4" fill="none" stroke="#3a5233" stroke-width="0.5" opacity="0.5"/><circle cx="226.4" cy="275.0" r="4" fill="#d4c090" opacity="0.92"/><circle cx="226.4" cy="275.0" r="4" fill="none" stroke="#3a5233" stroke-width="0.5" opacity="0.5"/>
  </svg>
        <rect x="168" y="474" width="100" height="18" rx="9" fill="#f9f7f4" opacity="0.85"/>
        <text x="218" y="487" class="sans muted" font-size="9" letter-spacing="1" text-anchor="middle">REVEAL THE RENDER &#8594;</text>
        <text x="50" y="536" class="serif ink" font-size="22">First Light Vows</text>
        <text x="50" y="560" class="sans muted" font-size="11.5">The hush before the aisle. Ivory and blu</text>
        <text x="50" y="576" class="sans muted" font-size="11.5">sh opening toward the light — joy that sti</text>
        <text x="50" y="592" class="sans muted" font-size="11.5">ll remembers…</text>
        <text x="50" y="622" class="serif ink" font-size="19">$425</text>
        <text x="260" y="622" class="sans muted" font-size="11" text-anchor="end">Focal Burst</text>
        <g><rect x="48" y="632" width="57" height="20" rx="10" fill="none" stroke="#e4e0d8"/><text x="77" y="646" class="sans sage" font-size="10" letter-spacing="0.6" text-anchor="middle">WEDDING</text></g><g><rect x="113.4" y="632" width="76" height="20" rx="10" fill="none" stroke="#e4e0d8"/><text x="151" y="646" class="sans sage" font-size="10" letter-spacing="0.6" text-anchor="middle">SUBTLE BOW</text></g>
      </g><g>
        <rect x="300" y="250" width="250" height="438" rx="4" fill="#ffffff" stroke="#e4e0d8"/>
        <defs><linearGradient id="bpg1" x1="0" y1="0" x2="0" y2="1"><stop offset="0" stop-color="#fbfaf7"/><stop offset="1" stop-color="#f3f1ea"/></linearGradient></defs>
        <rect x="300.5" y="250.5" width="249" height="250" fill="url(#bpg1)"/>
        <svg x="300" y="250" width="250" height="250" viewBox="0 0 320 320">
    <circle cx="160" cy="160" r="108.80000000000001" fill="none" stroke="#d8d3c8" stroke-width="1" stroke-dasharray="2 4"/>
    <circle cx="160" cy="160" r="132.8" fill="none" stroke="#e6e2d9" stroke-width="1"/>
    <circle cx="160" cy="160" r="90.80000000000001" fill="none" stroke="#e6e2d9" stroke-width="1"/>
    <polyline points="77.9,112.6 81.7,106.6 85.9,100.9 90.5,95.5 95.5,90.5 100.9,85.9 99.8,71.8 106.6,67.5 113.7,63.8 121.0,60.6 128.5,57.9 136.2,55.9 142.6,44.5 151.3,43.5 160.0,43.2 168.7,43.5 177.4,44.5 186.0,46.1 196.8,40.7 205.6,43.8 214.1,47.6 222.4,51.9 230.3,56.9 242.8,56.2 250.3,62.7 257.3,69.7 260.7,79.7 266.4,87.4 271.5,95.6" fill="none" stroke="#b9b2a4" stroke-width="0.75"/>
    <circle cx="77.9" cy="112.6" r="9" fill="#c8b87a" opacity="0.92"/><circle cx="77.9" cy="112.6" r="9" fill="none" stroke="#3a5233" stroke-width="0.5" opacity="0.5"/><circle cx="81.7" cy="106.6" r="9" fill="#c8b87a" opacity="0.92"/><circle cx="81.7" cy="106.6" r="9" fill="none" stroke="#3a5233" stroke-width="0.5" opacity="0.5"/><circle cx="85.9" cy="100.9" r="9" fill="#c8b87a" opacity="0.92"/><circle cx="85.9" cy="100.9" r="9" fill="none" stroke="#3a5233" stroke-width="0.5" opacity="0.5"/><circle cx="90.5" cy="95.5" r="9" fill="#c8b87a" opacity="0.92"/><circle cx="90.5" cy="95.5" r="9" fill="none" stroke="#3a5233" stroke-width="0.5" opacity="0.5"/><circle cx="95.5" cy="90.5" r="9" fill="#c8b87a" opacity="0.92"/><circle cx="95.5" cy="90.5" r="9" fill="none" stroke="#3a5233" stroke-width="0.5" opacity="0.5"/><circle cx="100.9" cy="85.9" r="9" fill="#c8b87a" opacity="0.92"/><circle cx="100.9" cy="85.9" r="9" fill="none" stroke="#3a5233" stroke-width="0.5" opacity="0.5"/><circle cx="99.8" cy="71.8" r="11" fill="#c4a0a0" opacity="0.92"/><circle cx="99.8" cy="71.8" r="11" fill="none" stroke="#3a5233" stroke-width="0.5" opacity="0.5"/><circle cx="106.6" cy="67.5" r="11" fill="#c4a0a0" opacity="0.92"/><circle cx="106.6" cy="67.5" r="11" fill="none" stroke="#3a5233" stroke-width="0.5" opacity="0.5"/><circle cx="113.7" cy="63.8" r="11" fill="#e8e0d0" opacity="0.92"/><circle cx="113.7" cy="63.8" r="11" fill="none" stroke="#3a5233" stroke-width="0.5" opacity="0.5"/><circle cx="121.0" cy="60.6" r="11" fill="#e8e0d0" opacity="0.92"/><circle cx="121.0" cy="60.6" r="11" fill="none" stroke="#3a5233" stroke-width="0.5" opacity="0.5"/><circle cx="128.5" cy="57.9" r="11" fill="#e8e0d0" opacity="0.92"/><circle cx="128.5" cy="57.9" r="11" fill="none" stroke="#3a5233" stroke-width="0.5" opacity="0.5"/><circle cx="136.2" cy="55.9" r="11" fill="#e8e0d0" opacity="0.92"/><circle cx="136.2" cy="55.9" r="11" fill="none" stroke="#3a5233" stroke-width="0.5" opacity="0.5"/><circle cx="142.6" cy="44.5" r="7" fill="#e8d8c8" opacity="0.92"/><circle cx="142.6" cy="44.5" r="7" fill="none" stroke="#3a5233" stroke-width="0.5" opacity="0.5"/><circle cx="151.3" cy="43.5" r="7" fill="#e8d8c8" opacity="0.92"/><circle cx="151.3" cy="43.5" r="7" fill="none" stroke="#3a5233" stroke-width="0.5" opacity="0.5"/><circle cx="160.0" cy="43.2" r="7" fill="#e8d8c8" opacity="0.92"/><circle cx="160.0" cy="43.2" r="7" fill="none" stroke="#3a5233" stroke-width="0.5" opacity="0.5"/><circle cx="168.7" cy="43.5" r="7" fill="#8090a8" opacity="0.92"/><circle cx="168.7" cy="43.5" r="7" fill="none" stroke="#3a5233" stroke-width="0.5" opacity="0.5"/><circle cx="177.4" cy="44.5" r="7" fill="#8090a8" opacity="0.92"/><circle cx="177.4" cy="44.5" r="7" fill="none" stroke="#3a5233" stroke-width="0.5" opacity="0.5"/><circle cx="186.0" cy="46.1" r="7" fill="#8090a8" opacity="0.92"/><circle cx="186.0" cy="46.1" r="7" fill="none" stroke="#3a5233" stroke-width="0.5" opacity="0.5"/><circle cx="196.8" cy="40.7" r="5" fill="#7a9070" opacity="0.92"/><circle cx="196.8" cy="40.7" r="5" fill="none" stroke="#3a5233" stroke-width="0.5" opacity="0.5"/><circle cx="205.6" cy="43.8" r="5" fill="#7a9070" opacity="0.92"/><circle cx="205.6" cy="43.8" r="5" fill="none" stroke="#3a5233" stroke-width="0.5" opacity="0.5"/><circle cx="214.1" cy="47.6" r="5" fill="#7a9070" opacity="0.92"/><circle cx="214.1" cy="47.6" r="5" fill="none" stroke="#3a5233" stroke-width="0.5" opacity="0.5"/><circle cx="222.4" cy="51.9" r="5" fill="#7a9070" opacity="0.92"/><circle cx="222.4" cy="51.9" r="5" fill="none" stroke="#3a5233" stroke-width="0.5" opacity="0.5"/><circle cx="230.3" cy="56.9" r="5" fill="#7a9070" opacity="0.92"/><circle cx="230.3" cy="56.9" r="5" fill="none" stroke="#3a5233" stroke-width="0.5" opacity="0.5"/><circle cx="242.8" cy="56.2" r="4" fill="#d4c090" opacity="0.92"/><circle cx="242.8" cy="56.2" r="4" fill="none" stroke="#3a5233" stroke-width="0.5" opacity="0.5"/><circle cx="250.3" cy="62.7" r="4" fill="#d4c090" opacity="0.92"/><circle cx="250.3" cy="62.7" r="4" fill="none" stroke="#3a5233" stroke-width="0.5" opacity="0.5"/><circle cx="257.3" cy="69.7" r="4" fill="#d4c090" opacity="0.92"/><circle cx="257.3" cy="69.7" r="4" fill="none" stroke="#3a5233" stroke-width="0.5" opacity="0.5"/><circle cx="260.7" cy="79.7" r="4" fill="#9a8ab0" opacity="0.92"/><circle cx="260.7" cy="79.7" r="4" fill="none" stroke="#3a5233" stroke-width="0.5" opacity="0.5"/><circle cx="266.4" cy="87.4" r="4" fill="#9a8ab0" opacity="0.92"/><circle cx="266.4" cy="87.4" r="4" fill="none" stroke="#3a5233" stroke-width="0.5" opacity="0.5"/><circle cx="271.5" cy="95.6" r="4" fill="#9a8ab0" opacity="0.92"/><circle cx="271.5" cy="95.6" r="4" fill="none" stroke="#3a5233" stroke-width="0.5" opacity="0.5"/>
  </svg>
        <rect x="438" y="474" width="100" height="18" rx="9" fill="#f9f7f4" opacity="0.85"/>
        <text x="488" y="487" class="sans muted" font-size="9" letter-spacing="1" text-anchor="middle">REVEAL THE RENDER &#8594;</text>
        <text x="320" y="536" class="serif ink" font-size="22">A New Door</text>
        <text x="320" y="560" class="sans muted" font-size="11.5">Keys still cold in the hand. Balanced gr</text>
        <text x="320" y="576" class="sans muted" font-size="11.5">eens and warm neutrals for the threshold o</text>
        <text x="320" y="592" class="sans muted" font-size="11.5">f a life jus…</text>
        <text x="320" y="622" class="serif ink" font-size="19">$285</text>
        <text x="530" y="622" class="sans muted" font-size="11" text-anchor="end">Crescent</text>
        <g><rect x="318" y="632" width="64" height="20" rx="10" fill="none" stroke="#e4e0d8"/><text x="350" y="646" class="sans sage" font-size="10" letter-spacing="0.6" text-anchor="middle">NEW-HOME</text></g><g><rect x="389.6" y="632" width="138" height="20" rx="10" fill="none" stroke="#e4e0d8"/><text x="459" y="646" class="sans sage" font-size="10" letter-spacing="0.6" text-anchor="middle">WHITE MAGNOLIA SPRAY</text></g>
      </g><g>
        <rect x="570" y="250" width="250" height="438" rx="4" fill="#ffffff" stroke="#e4e0d8"/>
        <defs><linearGradient id="bpg2" x1="0" y1="0" x2="0" y2="1"><stop offset="0" stop-color="#fbfaf7"/><stop offset="1" stop-color="#f3f1ea"/></linearGradient></defs>
        <rect x="570.5" y="250.5" width="249" height="250" fill="url(#bpg2)"/>
        <svg x="570" y="250" width="250" height="250" viewBox="0 0 320 320">
    <circle cx="160" cy="160" r="108.80000000000001" fill="none" stroke="#d8d3c8" stroke-width="1" stroke-dasharray="2 4"/>
    <circle cx="160" cy="160" r="132.8" fill="none" stroke="#e6e2d9" stroke-width="1"/>
    <circle cx="160" cy="160" r="90.80000000000001" fill="none" stroke="#e6e2d9" stroke-width="1"/>
    <polyline points="112.6,77.9 119.4,74.4 126.4,71.4 133.6,68.9 141.0,67.1 147.1,54.0 155.7,53.3 164.3,53.3 172.9,54.0 181.4,55.4 192.5,47.8 201.4,50.8 210.1,54.5 218.4,58.8 226.3,63.9 233.9,69.5 246.5,70.0 253.4,77.2 259.8,85.0 265.5,93.3 270.5,102.0 278.5,109.5 282.2,119.2 285.1,129.2 291.1,138.7 292.4,149.3 292.8,160.0" fill="none" stroke="#b9b2a4" stroke-width="0.75"/>
    <circle cx="112.6" cy="77.9" r="9" fill="#c8b87a" opacity="0.92"/><circle cx="112.6" cy="77.9" r="9" fill="none" stroke="#3a5233" stroke-width="0.5" opacity="0.5"/><circle cx="119.4" cy="74.4" r="9" fill="#c8b87a" opacity="0.92"/><circle cx="119.4" cy="74.4" r="9" fill="none" stroke="#3a5233" stroke-width="0.5" opacity="0.5"/><circle cx="126.4" cy="71.4" r="9" fill="#c8b87a" opacity="0.92"/><circle cx="126.4" cy="71.4" r="9" fill="none" stroke="#3a5233" stroke-width="0.5" opacity="0.5"/><circle cx="133.6" cy="68.9" r="9" fill="#3a3832" opacity="0.92"/><circle cx="133.6" cy="68.9" r="9" fill="none" stroke="#3a5233" stroke-width="0.5" opacity="0.5"/><circle cx="141.0" cy="67.1" r="9" fill="#3a3832" opacity="0.92"/><circle cx="141.0" cy="67.1" r="9" fill="none" stroke="#3a5233" stroke-width="0.5" opacity="0.5"/><circle cx="147.1" cy="54.0" r="11" fill="#6a2838" opacity="0.92"/><circle cx="147.1" cy="54.0" r="11" fill="none" stroke="#3a5233" stroke-width="0.5" opacity="0.5"/><circle cx="155.7" cy="53.3" r="11" fill="#6a2838" opacity="0.92"/><circle cx="155.7" cy="53.3" r="11" fill="none" stroke="#3a5233" stroke-width="0.5" opacity="0.5"/><circle cx="164.3" cy="53.3" r="11" fill="#6a2838" opacity="0.92"/><circle cx="164.3" cy="53.3" r="11" fill="none" stroke="#3a5233" stroke-width="0.5" opacity="0.5"/><circle cx="172.9" cy="54.0" r="11" fill="#6a2838" opacity="0.92"/><circle cx="172.9" cy="54.0" r="11" fill="none" stroke="#3a5233" stroke-width="0.5" opacity="0.5"/><circle cx="181.4" cy="55.4" r="11" fill="#6a2838" opacity="0.92"/><circle cx="181.4" cy="55.4" r="11" fill="none" stroke="#3a5233" stroke-width="0.5" opacity="0.5"/><circle cx="192.5" cy="47.8" r="7" fill="#e8d8c8" opacity="0.92"/><circle cx="192.5" cy="47.8" r="7" fill="none" stroke="#3a5233" stroke-width="0.5" opacity="0.5"/><circle cx="201.4" cy="50.8" r="7" fill="#e8d8c8" opacity="0.92"/><circle cx="201.4" cy="50.8" r="7" fill="none" stroke="#3a5233" stroke-width="0.5" opacity="0.5"/><circle cx="210.1" cy="54.5" r="7" fill="#e8d8c8" opacity="0.92"/><circle cx="210.1" cy="54.5" r="7" fill="none" stroke="#3a5233" stroke-width="0.5" opacity="0.5"/><circle cx="218.4" cy="58.8" r="7" fill="#e8d8c8" opacity="0.92"/><circle cx="218.4" cy="58.8" r="7" fill="none" stroke="#3a5233" stroke-width="0.5" opacity="0.5"/><circle cx="226.3" cy="63.9" r="7" fill="#e8d8c8" opacity="0.92"/><circle cx="226.3" cy="63.9" r="7" fill="none" stroke="#3a5233" stroke-width="0.5" opacity="0.5"/><circle cx="233.9" cy="69.5" r="7" fill="#e8d8c8" opacity="0.92"/><circle cx="233.9" cy="69.5" r="7" fill="none" stroke="#3a5233" stroke-width="0.5" opacity="0.5"/><circle cx="246.5" cy="70.0" r="5" fill="#7a9070" opacity="0.92"/><circle cx="246.5" cy="70.0" r="5" fill="none" stroke="#3a5233" stroke-width="0.5" opacity="0.5"/><circle cx="253.4" cy="77.2" r="5" fill="#7a9070" opacity="0.92"/><circle cx="253.4" cy="77.2" r="5" fill="none" stroke="#3a5233" stroke-width="0.5" opacity="0.5"/><circle cx="259.8" cy="85.0" r="5" fill="#7a9070" opacity="0.92"/><circle cx="259.8" cy="85.0" r="5" fill="none" stroke="#3a5233" stroke-width="0.5" opacity="0.5"/><circle cx="265.5" cy="93.3" r="5" fill="#7a9070" opacity="0.92"/><circle cx="265.5" cy="93.3" r="5" fill="none" stroke="#3a5233" stroke-width="0.5" opacity="0.5"/><circle cx="270.5" cy="102.0" r="5" fill="#7a9070" opacity="0.92"/><circle cx="270.5" cy="102.0" r="5" fill="none" stroke="#3a5233" stroke-width="0.5" opacity="0.5"/><circle cx="278.5" cy="109.5" r="4" fill="#9a8ab0" opacity="0.92"/><circle cx="278.5" cy="109.5" r="4" fill="none" stroke="#3a5233" stroke-width="0.5" opacity="0.5"/><circle cx="282.2" cy="119.2" r="4" fill="#9a8ab0" opacity="0.92"/><circle cx="282.2" cy="119.2" r="4" fill="none" stroke="#3a5233" stroke-width="0.5" opacity="0.5"/><circle cx="285.1" cy="129.2" r="4" fill="#9a8ab0" opacity="0.92"/><circle cx="285.1" cy="129.2" r="4" fill="none" stroke="#3a5233" stroke-width="0.5" opacity="0.5"/><circle cx="291.1" cy="138.7" r="4" fill="#d4c090" opacity="0.92"/><circle cx="291.1" cy="138.7" r="4" fill="none" stroke="#3a5233" stroke-width="0.5" opacity="0.5"/><circle cx="292.4" cy="149.3" r="4" fill="#d4c090" opacity="0.92"/><circle cx="292.4" cy="149.3" r="4" fill="none" stroke="#3a5233" stroke-width="0.5" opacity="0.5"/><circle cx="292.8" cy="160.0" r="4" fill="#d4c090" opacity="0.92"/><circle cx="292.8" cy="160.0" r="4" fill="none" stroke="#3a5233" stroke-width="0.5" opacity="0.5"/>
  </svg>
        <rect x="708" y="474" width="100" height="18" rx="9" fill="#f9f7f4" opacity="0.85"/>
        <text x="758" y="487" class="sans muted" font-size="9" letter-spacing="1" text-anchor="middle">REVEAL THE RENDER &#8594;</text>
        <text x="590" y="536" class="serif ink" font-size="22">Golden Anniversary</text>
        <text x="590" y="560" class="sans muted" font-size="11.5">Fifty years, swept to one warm side. Cha</text>
        <text x="590" y="576" class="sans muted" font-size="11.5">mpagne and burgundy with a statement ribbo</text>
        <text x="590" y="592" class="sans muted" font-size="11.5">n — abundanc…</text>
        <text x="590" y="622" class="serif ink" font-size="19">$445</text>
        <text x="800" y="622" class="sans muted" font-size="11" text-anchor="end">Side Sweep</text>
        <g><rect x="588" y="632" width="82" height="20" rx="10" fill="none" stroke="#e4e0d8"/><text x="629" y="646" class="sans sage" font-size="10" letter-spacing="0.6" text-anchor="middle">ANNIVERSARY</text></g><g><rect x="678.2" y="632" width="95" height="20" rx="10" fill="none" stroke="#e4e0d8"/><text x="726" y="646" class="sans sage" font-size="10" letter-spacing="0.6" text-anchor="middle">STATEMENT BOW</text></g>
      </g><g>
        <rect x="840" y="250" width="250" height="438" rx="4" fill="#ffffff" stroke="#e4e0d8"/>
        <defs><linearGradient id="bpg3" x1="0" y1="0" x2="0" y2="1"><stop offset="0" stop-color="#fbfaf7"/><stop offset="1" stop-color="#f3f1ea"/></linearGradient></defs>
        <rect x="840.5" y="250.5" width="249" height="250" fill="url(#bpg3)"/>
        <svg x="840" y="250" width="250" height="250" viewBox="0 0 320 320">
    <circle cx="160" cy="160" r="108.80000000000001" fill="none" stroke="#d8d3c8" stroke-width="1" stroke-dasharray="2 4"/>
    <circle cx="160" cy="160" r="132.8" fill="none" stroke="#e6e2d9" stroke-width="1"/>
    <circle cx="160" cy="160" r="90.80000000000001" fill="none" stroke="#e6e2d9" stroke-width="1"/>
    <polyline points="254.8,160.0 252.2,181.9 244.7,202.5 232.6,220.9 216.6,236.0 197.5,247.0 178.5,265.2 153.8,266.6 129.4,262.3 106.6,252.5 86.7,237.7 62.4,224.2 50.2,199.9 44.0,173.6 44.0,146.4 50.2,120.1 62.4,95.8 71.6,66.3 95.6,48.5 124.2,40.4 152.7,35.4 181.7,37.1 209.4,45.4 234.5,59.9 255.6,79.8 278.7,100.4 289.2,129.4 292.8,160.0" fill="none" stroke="#b9b2a4" stroke-width="0.75"/>
    <circle cx="254.8" cy="160.0" r="9" fill="#c8b87a" opacity="0.92"/><circle cx="254.8" cy="160.0" r="9" fill="none" stroke="#3a5233" stroke-width="0.5" opacity="0.5"/><circle cx="252.2" cy="181.9" r="9" fill="#c8b87a" opacity="0.92"/><circle cx="252.2" cy="181.9" r="9" fill="none" stroke="#3a5233" stroke-width="0.5" opacity="0.5"/><circle cx="244.7" cy="202.5" r="9" fill="#c8b87a" opacity="0.92"/><circle cx="244.7" cy="202.5" r="9" fill="none" stroke="#3a5233" stroke-width="0.5" opacity="0.5"/><circle cx="232.6" cy="220.9" r="9" fill="#c8b87a" opacity="0.92"/><circle cx="232.6" cy="220.9" r="9" fill="none" stroke="#3a5233" stroke-width="0.5" opacity="0.5"/><circle cx="216.6" cy="236.0" r="9" fill="#c8b87a" opacity="0.92"/><circle cx="216.6" cy="236.0" r="9" fill="none" stroke="#3a5233" stroke-width="0.5" opacity="0.5"/><circle cx="197.5" cy="247.0" r="9" fill="#c8b87a" opacity="0.92"/><circle cx="197.5" cy="247.0" r="9" fill="none" stroke="#3a5233" stroke-width="0.5" opacity="0.5"/><circle cx="178.5" cy="265.2" r="11" fill="#c4a0a0" opacity="0.92"/><circle cx="178.5" cy="265.2" r="11" fill="none" stroke="#3a5233" stroke-width="0.5" opacity="0.5"/><circle cx="153.8" cy="266.6" r="11" fill="#c4a0a0" opacity="0.92"/><circle cx="153.8" cy="266.6" r="11" fill="none" stroke="#3a5233" stroke-width="0.5" opacity="0.5"/><circle cx="129.4" cy="262.3" r="11" fill="#c4a0a0" opacity="0.92"/><circle cx="129.4" cy="262.3" r="11" fill="none" stroke="#3a5233" stroke-width="0.5" opacity="0.5"/><circle cx="106.6" cy="252.5" r="11" fill="#c4a0a0" opacity="0.92"/><circle cx="106.6" cy="252.5" r="11" fill="none" stroke="#3a5233" stroke-width="0.5" opacity="0.5"/><circle cx="86.7" cy="237.7" r="11" fill="#c4a0a0" opacity="0.92"/><circle cx="86.7" cy="237.7" r="11" fill="none" stroke="#3a5233" stroke-width="0.5" opacity="0.5"/><circle cx="62.4" cy="224.2" r="7" fill="#e8d8c8" opacity="0.92"/><circle cx="62.4" cy="224.2" r="7" fill="none" stroke="#3a5233" stroke-width="0.5" opacity="0.5"/><circle cx="50.2" cy="199.9" r="7" fill="#e8d8c8" opacity="0.92"/><circle cx="50.2" cy="199.9" r="7" fill="none" stroke="#3a5233" stroke-width="0.5" opacity="0.5"/><circle cx="44.0" cy="173.6" r="7" fill="#e8d8c8" opacity="0.92"/><circle cx="44.0" cy="173.6" r="7" fill="none" stroke="#3a5233" stroke-width="0.5" opacity="0.5"/><circle cx="44.0" cy="146.4" r="7" fill="#8090a8" opacity="0.92"/><circle cx="44.0" cy="146.4" r="7" fill="none" stroke="#3a5233" stroke-width="0.5" opacity="0.5"/><circle cx="50.2" cy="120.1" r="7" fill="#8090a8" opacity="0.92"/><circle cx="50.2" cy="120.1" r="7" fill="none" stroke="#3a5233" stroke-width="0.5" opacity="0.5"/><circle cx="62.4" cy="95.8" r="7" fill="#8090a8" opacity="0.92"/><circle cx="62.4" cy="95.8" r="7" fill="none" stroke="#3a5233" stroke-width="0.5" opacity="0.5"/><circle cx="71.6" cy="66.3" r="4" fill="#9a8ab0" opacity="0.92"/><circle cx="71.6" cy="66.3" r="4" fill="none" stroke="#3a5233" stroke-width="0.5" opacity="0.5"/><circle cx="95.6" cy="48.5" r="4" fill="#9a8ab0" opacity="0.92"/><circle cx="95.6" cy="48.5" r="4" fill="none" stroke="#3a5233" stroke-width="0.5" opacity="0.5"/><circle cx="124.2" cy="40.4" r="5" fill="#7a9070" opacity="0.92"/><circle cx="124.2" cy="40.4" r="5" fill="none" stroke="#3a5233" stroke-width="0.5" opacity="0.5"/><circle cx="152.7" cy="35.4" r="5" fill="#7a9070" opacity="0.92"/><circle cx="152.7" cy="35.4" r="5" fill="none" stroke="#3a5233" stroke-width="0.5" opacity="0.5"/><circle cx="181.7" cy="37.1" r="5" fill="#7a9070" opacity="0.92"/><circle cx="181.7" cy="37.1" r="5" fill="none" stroke="#3a5233" stroke-width="0.5" opacity="0.5"/><circle cx="209.4" cy="45.4" r="5" fill="#7a9070" opacity="0.92"/><circle cx="209.4" cy="45.4" r="5" fill="none" stroke="#3a5233" stroke-width="0.5" opacity="0.5"/><circle cx="234.5" cy="59.9" r="5" fill="#7a9070" opacity="0.92"/><circle cx="234.5" cy="59.9" r="5" fill="none" stroke="#3a5233" stroke-width="0.5" opacity="0.5"/><circle cx="255.6" cy="79.8" r="5" fill="#7a9070" opacity="0.92"/><circle cx="255.6" cy="79.8" r="5" fill="none" stroke="#3a5233" stroke-width="0.5" opacity="0.5"/><circle cx="278.7" cy="100.4" r="4" fill="#d4c090" opacity="0.92"/><circle cx="278.7" cy="100.4" r="4" fill="none" stroke="#3a5233" stroke-width="0.5" opacity="0.5"/><circle cx="289.2" cy="129.4" r="4" fill="#d4c090" opacity="0.92"/><circle cx="289.2" cy="129.4" r="4" fill="none" stroke="#3a5233" stroke-width="0.5" opacity="0.5"/><circle cx="292.8" cy="160.0" r="4" fill="#d4c090" opacity="0.92"/><circle cx="292.8" cy="160.0" r="4" fill="none" stroke="#3a5233" stroke-width="0.5" opacity="0.5"/>
  </svg>
        <rect x="978" y="474" width="100" height="18" rx="9" fill="#f9f7f4" opacity="0.85"/>
        <text x="1028" y="487" class="sans muted" font-size="9" letter-spacing="1" text-anchor="middle">REVEAL THE RENDER &#8594;</text>
        <text x="860" y="536" class="serif ink" font-size="22">Winter Hearth</text>
        <text x="860" y="560" class="sans muted" font-size="11.5">Scattered abundance for the season of ga</text>
        <text x="860" y="576" class="sans muted" font-size="11.5">thering in. Deep greens and silver, ground</text>
        <text x="860" y="592" class="sans muted" font-size="11.5">ed and glowi…</text>
        <text x="860" y="622" class="serif ink" font-size="19">$365</text>
        <text x="1070" y="622" class="sans muted" font-size="11" text-anchor="end">Garden Scatter</text>
        <g><rect x="858" y="632" width="113" height="20" rx="10" fill="none" stroke="#e4e0d8"/><text x="915" y="646" class="sans sage" font-size="10" letter-spacing="0.6" text-anchor="middle">HOLIDAY-SPECIFIC</text></g><g><rect x="979.2" y="632" width="76" height="20" rx="10" fill="none" stroke="#e4e0d8"/><text x="1017" y="646" class="sans sage" font-size="10" letter-spacing="0.6" text-anchor="middle">SUBTLE BOW</text></g>
      </g>
  <text x="560" y="728" class="sans muted" font-size="13" text-anchor="middle">Did this feel like your memory?</text>
  <g>
    <rect x="410" y="740" width="140" height="38" rx="2" fill="none" stroke="#4a6741"/>
    <text x="480" y="764" class="sans sage" font-size="12" letter-spacing="1" text-anchor="middle">YES, EXACTLY</text>
    <rect x="570" y="740" width="140" height="38" rx="2" fill="none" stroke="#4a6741"/>
    <text x="640" y="764" class="sans sage" font-size="12" letter-spacing="1" text-anchor="middle">NOT QUITE</text>
  </g>
</svg>